<svg width="34" height="34" fill="none" xmlns="http://www.w3.org/2000/svg"><g clip-path="url(#clip0_68_390)" fill-rule="evenodd" clip-rule="evenodd" fill="#959AAE"><path d="M25.165 11.283a.817.817 0 01.567.318c2.541 3.179 2.535 7.626-.013 10.816a.856.856 0 11-1.34-1.07 6.912 6.912 0 00.009-8.672.86.86 0 01.136-1.207.853.853 0 01.641-.185zm-3.043 2.595a.854.854 0 011.191.228 5.174 5.174 0 01-.007 5.806.865.865 0 01-1.322.13.86.86 0 01-.102-1.086v-.001a3.462 3.462 0 00.005-3.885.862.862 0 01.235-1.192zm-6.494 3.125c0 5.64 3.903 3.018 3.904 6.608 0 3.463.649 4.805-3.738 4.804-.495-.054-4.898.857-4.9-11.412-.002-12.271 4.401-11.364 4.897-11.417 4.398 0 3.738 1.341 3.738 4.804.001 3.591-3.902.972-3.901 6.613z"/></g><defs><clipPath id="clip0_68_390"><path fill="#fff" transform="rotate(45 8.465 20.535)" d="M0 0h24v24H0z"/></clipPath></defs></svg>